<?xml version="1.0" standalone="no"?>
<!DOCTYPE svg PUBLIC "-//W3C//DTD SVG 20010904//EN"
 "http://www.w3.org/TR/2001/REC-SVG-20010904/DTD/svg10.dtd">
<svg version="1.0" xmlns="http://www.w3.org/2000/svg"
 width="700.000000pt" height="700.000000pt" viewBox="0 0 700.000000 700.000000"
 preserveAspectRatio="xMidYMid meet">
<metadata>
Created by potrace 1.14, written by Peter Selinger 2001-2017
</metadata>
<g transform="translate(0.000000,700.000000) scale(0.100000,-0.100000)"
fill="#000000" stroke="none">
<path d="M3280 6994 c-19 -2 -84 -9 -145 -14 -639 -62 -1264 -315 -1795 -726
-149 -115 -481 -446 -595 -594 -410 -532 -653 -1132 -727 -1795 -17 -155 -17
-575 0 -730 75 -673 332 -1300 748 -1820 114 -143 339 -372 484 -494 537 -451
1163 -717 1885 -803 142 -17 586 -17 730 0 682 79 1268 318 1802 734 138 107
389 351 512 498 451 538 717 1162 803 1885 16 139 16 595 0 730 -77 629 -275
1158 -620 1649 -234 333 -577 668 -917 896 -460 308 -968 495 -1535 566 -117
15 -552 27 -630 18z m660 -1179 c461 -72 903 -264 1247 -540 l62 -50 -42 -45
c-35 -37 -526 -547 -668 -694 l-38 -39 -72 67 c-120 111 -270 187 -474 241
-309 81 -635 52 -910 -80 -232 -111 -421 -336 -513 -610 -182 -546 -56 -1224
289 -1549 199 -188 462 -303 759 -331 83 -8 315 26 420 62 230 78 408 204 513
363 31 47 167 373 167 401 0 5 -224 9 -535 9 l-535 0 0 455 0 455 1063 -2
1062 -3 14 -260 c26 -461 -12 -743 -155 -1150 -200 -569 -615 -999 -1168
-1212 -121 -46 -363 -108 -506 -128 -499 -72 -1032 17 -1459 241 -672 354
-1118 997 -1232 1779 -20 137 -17 483 5 630 82 536 318 995 704 1366 368 355
804 566 1312 634 141 19 544 13 690 -10z"/>
</g>
</svg>
